# xmcd
#
# Track frame offsets:
#	150
#	22381
#	36952
#	59262
#	74476
#	93555
#	125173
#	143621
#	175699
#	195009
#	216594
#	235442
#	254110
#	270487
#	286353
#	307074
#	327078
#
# Disc length: 4608 seconds
#
# Revision: 1
# Processed by: cddbd v1.5.1PL0 Copyright (c) Steve Scherf et al.
# Submitted via: audiograbber 1.83.01
#
DISCID=1011fe11
DTITLE=Berry White - Unknown
DYEAR=1900
DGENRE=Soul
TTITLE0=1
TTITLE1=2
TTITLE2=3
TTITLE3=4
TTITLE4=5
TTITLE5=6
TTITLE6=7
TTITLE7=8
TTITLE8=9
TTITLE9=10
TTITLE10=11
TTITLE11=12
TTITLE12=13
TTITLE13=14
TTITLE14=15
TTITLE15=16
TTITLE16=17
EXTD=may be 'The Ultimate Collection'
EXTT0=
EXTT1=
EXTT2=
EXTT3=
EXTT4=
EXTT5=
EXTT6=
EXTT7=
EXTT8=
EXTT9=
EXTT10=
EXTT11=
EXTT12=
EXTT13=
EXTT14=
EXTT15=
EXTT16=
PLAYORDER=
